# Blender v3.0.1 OBJ File: ''
# www.blender.org
mtllib CoffeeTin.mtl
o Cylinder
v 0.000000 0.003062 -0.080000
v 0.000000 0.203062 -0.073215
v 0.015607 0.003062 -0.078463
v 0.014284 0.203062 -0.071809
v 0.030615 0.003062 -0.073910
v 0.028018 0.203062 -0.067642
v 0.044446 0.003062 -0.066518
v 0.040676 0.203062 -0.060876
v 0.056569 0.003062 -0.056569
v 0.051771 0.203062 -0.051771
v 0.066518 0.003062 -0.044446
v 0.060876 0.203062 -0.040676
v 0.073910 0.003062 -0.030615
v 0.067642 0.203062 -0.028018
v 0.078463 0.003062 -0.015607
v 0.071809 0.203062 -0.014284
v 0.080000 0.003062 0.000000
v 0.073215 0.203062 0.000000
v 0.078463 0.003062 0.015607
v 0.071809 0.203062 0.014284
v 0.073910 0.003062 0.030615
v 0.067642 0.203062 0.028018
v 0.066518 0.003062 0.044446
v 0.060876 0.203062 0.040676
v 0.056569 0.003062 0.056569
v 0.051771 0.203062 0.051771
v 0.044446 0.003062 0.066518
v 0.040676 0.203062 0.060876
v 0.030615 0.003062 0.073910
v 0.028018 0.203062 0.067642
v 0.015607 0.003062 0.078463
v 0.014284 0.203062 0.071809
v -0.000000 0.003062 0.080000
v -0.000000 0.203062 0.073215
v -0.015607 0.003062 0.078463
v -0.014284 0.203062 0.071809
v -0.030615 0.003062 0.073910
v -0.028018 0.203062 0.067642
v -0.044446 0.003062 0.066518
v -0.040676 0.203062 0.060876
v -0.056569 0.003062 0.056569
v -0.051771 0.203062 0.051771
v -0.066518 0.003062 0.044446
v -0.060876 0.203062 0.040676
v -0.073910 0.003062 0.030615
v -0.067642 0.203062 0.028018
v -0.078463 0.003062 0.015607
v -0.071809 0.203062 0.014284
v -0.080000 0.003062 -0.000000
v -0.073215 0.203062 -0.000000
v -0.078463 0.003062 -0.015607
v -0.071809 0.203062 -0.014284
v -0.073910 0.003062 -0.030615
v -0.067642 0.203062 -0.028018
v -0.066518 0.003062 -0.044446
v -0.060876 0.203062 -0.040676
v -0.056569 0.003062 -0.056569
v -0.051771 0.203062 -0.051771
v -0.044446 0.003062 -0.066518
v -0.040676 0.203062 -0.060876
v -0.030615 0.003062 -0.073910
v -0.028018 0.203062 -0.067642
v -0.015607 0.003062 -0.078463
v -0.014284 0.203062 -0.071809
v 0.000000 0.007348 -0.080000
v 0.015607 0.007348 -0.078463
v 0.030615 0.007348 -0.073910
v 0.044446 0.007348 -0.066518
v 0.056569 0.007348 -0.056569
v 0.066518 0.007348 -0.044446
v 0.073910 0.007348 -0.030615
v 0.078463 0.007348 -0.015607
v 0.080000 0.007348 0.000000
v 0.078463 0.007348 0.015607
v 0.073910 0.007348 0.030615
v 0.066518 0.007348 0.044446
v 0.056569 0.007348 0.056569
v 0.044446 0.007348 0.066518
v 0.030615 0.007348 0.073910
v 0.015607 0.007348 0.078463
v -0.000000 0.007348 0.080000
v -0.015607 0.007348 0.078463
v -0.030615 0.007348 0.073910
v -0.044446 0.007348 0.066518
v -0.056569 0.007348 0.056569
v -0.066518 0.007348 0.044446
v -0.073910 0.007348 0.030615
v -0.078463 0.007348 0.015607
v -0.080000 0.007348 -0.000000
v -0.078463 0.007348 -0.015607
v -0.073910 0.007348 -0.030615
v -0.066518 0.007348 -0.044446
v -0.056569 0.007348 -0.056569
v -0.044446 0.007348 -0.066518
v -0.030615 0.007348 -0.073910
v -0.015607 0.007348 -0.078463
v 0.000000 0.178422 -0.080000
v 0.015607 0.178422 -0.078463
v 0.030615 0.178422 -0.073910
v 0.044446 0.178422 -0.066518
v 0.056569 0.178422 -0.056569
v 0.066518 0.178422 -0.044446
v 0.073910 0.178422 -0.030615
v 0.078463 0.178422 -0.015607
v 0.080000 0.178422 0.000000
v 0.078463 0.178422 0.015607
v 0.073910 0.178422 0.030615
v 0.066518 0.178422 0.044446
v 0.056569 0.178422 0.056569
v 0.044446 0.178422 0.066518
v 0.030615 0.178422 0.073910
v 0.015607 0.178422 0.078463
v -0.000000 0.178422 0.080000
v -0.015607 0.178422 0.078463
v -0.030615 0.178422 0.073910
v -0.044446 0.178422 0.066518
v -0.056569 0.178422 0.056569
v -0.066518 0.178422 0.044446
v -0.073910 0.178422 0.030615
v -0.078463 0.178422 0.015607
v -0.080000 0.178422 -0.000000
v -0.078463 0.178422 -0.015607
v -0.073910 0.178422 -0.030615
v -0.066518 0.178422 -0.044446
v -0.056569 0.178422 -0.056569
v -0.044446 0.178422 -0.066518
v -0.030615 0.178422 -0.073910
v -0.015607 0.178422 -0.078463
v 0.000000 0.184519 -0.075658
v 0.014760 0.184519 -0.074205
v 0.028953 0.184519 -0.069899
v 0.042034 0.184519 -0.062908
v 0.053499 0.184519 -0.053499
v 0.062908 0.184519 -0.042034
v 0.069899 0.184519 -0.028953
v 0.074205 0.184519 -0.014760
v 0.075658 0.184519 0.000000
v 0.074205 0.184519 0.014760
v 0.069899 0.184519 0.028953
v 0.062908 0.184519 0.042034
v 0.053499 0.184519 0.053499
v 0.042034 0.184519 0.062908
v 0.028953 0.184519 0.069899
v 0.014760 0.184519 0.074205
v -0.000000 0.184519 0.075658
v -0.014760 0.184519 0.074205
v -0.028953 0.184519 0.069899
v -0.042034 0.184519 0.062908
v -0.053499 0.184519 0.053499
v -0.062908 0.184519 0.042034
v -0.069899 0.184519 0.028953
v -0.074205 0.184519 0.014760
v -0.075658 0.184519 -0.000000
v -0.074205 0.184519 -0.014760
v -0.069899 0.184519 -0.028953
v -0.062908 0.184519 -0.042034
v -0.053499 0.184519 -0.053499
v -0.042034 0.184519 -0.062908
v -0.028953 0.184519 -0.069899
v -0.014760 0.184519 -0.074205
v 0.000000 0.198813 -0.079005
v 0.015413 0.198813 -0.077487
v 0.030234 0.198813 -0.072991
v 0.043893 0.198813 -0.065690
v 0.055865 0.198813 -0.055865
v 0.065690 0.198813 -0.043893
v 0.072991 0.198813 -0.030234
v 0.077487 0.198813 -0.015413
v 0.079005 0.198813 0.000000
v 0.077487 0.198813 0.015413
v 0.072991 0.198813 0.030234
v 0.065690 0.198813 0.043893
v 0.055865 0.198813 0.055865
v 0.043893 0.198813 0.065690
v 0.030234 0.198813 0.072991
v 0.015413 0.198813 0.077487
v -0.000000 0.198813 0.079005
v -0.015413 0.198813 0.077487
v -0.030234 0.198813 0.072991
v -0.043893 0.198813 0.065690
v -0.055865 0.198813 0.055865
v -0.065690 0.198813 0.043893
v -0.072991 0.198813 0.030234
v -0.077487 0.198813 0.015413
v -0.079005 0.198813 -0.000000
v -0.077487 0.198813 -0.015413
v -0.072991 0.198813 -0.030234
v -0.065690 0.198813 -0.043893
v -0.055865 0.198813 -0.055865
v -0.043893 0.198813 -0.065690
v -0.030234 0.198813 -0.072991
v -0.015413 0.198813 -0.077487
vt 0.377729 0.035317
vt 0.385119 0.044322
vt 0.364699 0.064742
vt 0.355694 0.057352
vt 0.348655 0.088754
vt 0.338382 0.083262
vt 0.337604 0.115434
vt 0.326457 0.112052
vt 0.331970 0.143757
vt 0.320377 0.142615
vt 0.331970 0.172636
vt 0.320377 0.173777
vt 0.337604 0.200959
vt 0.326457 0.204341
vt 0.348655 0.227639
vt 0.338382 0.233130
vt 0.364699 0.251651
vt 0.355695 0.259041
vt 0.385119 0.272071
vt 0.377729 0.281076
vt 0.409131 0.288115
vt 0.403640 0.298388
vt 0.435811 0.299166
vt 0.432429 0.310313
vt 0.464134 0.304800
vt 0.462993 0.316393
vt 0.493013 0.304800
vt 0.494155 0.316393
vt 0.521336 0.299166
vt 0.524718 0.310313
vt 0.548016 0.288115
vt 0.553508 0.298388
vt 0.572028 0.272071
vt 0.579418 0.281076
vt 0.592448 0.251651
vt 0.601453 0.259041
vt 0.608492 0.227639
vt 0.618765 0.233130
vt 0.619543 0.200959
vt 0.630691 0.204341
vt 0.625177 0.172636
vt 0.636770 0.173777
vt 0.625177 0.143757
vt 0.636770 0.142615
vt 0.619543 0.115434
vt 0.630691 0.112052
vt 0.608492 0.088754
vt 0.618765 0.083262
vt 0.592448 0.064742
vt 0.601453 0.057352
vt 0.572028 0.044322
vt 0.579418 0.035317
vt 0.548016 0.028278
vt 0.553508 0.018005
vt 0.521336 0.017227
vt 0.524718 0.006079
vt 0.493013 0.011593
vt 0.494155 0.000000
vt 0.464134 0.011593
vt 0.462993 0.000000
vt 0.435811 0.017227
vt 0.432429 0.006079
vt 0.409131 0.028278
vt 0.403639 0.018005
vt 0.000000 0.144411
vt 0.006156 0.113463
vt 0.018231 0.084311
vt 0.035762 0.058074
vt 0.058074 0.035762
vt 0.084311 0.018231
vt 0.113463 0.006156
vt 0.144411 0.000000
vt 0.175966 0.000000
vt 0.206914 0.006156
vt 0.236066 0.018231
vt 0.262303 0.035762
vt 0.284615 0.058074
vt 0.302146 0.084311
vt 0.314221 0.113463
vt 0.320377 0.144411
vt 0.320377 0.175966
vt 0.314221 0.206914
vt 0.302146 0.236066
vt 0.284615 0.262303
vt 0.262303 0.284615
vt 0.236066 0.302146
vt 0.206914 0.314221
vt 0.175966 0.320377
vt 0.144411 0.320377
vt 0.113463 0.314221
vt 0.084311 0.302146
vt 0.058074 0.284615
vt 0.035762 0.262303
vt 0.018231 0.236066
vt 0.006156 0.206914
vt 0.000000 0.175966
vt 0.882108 0.708861
vt 0.882108 0.700265
vt 0.913663 0.700265
vt 0.913663 0.708861
vt 0.851160 0.709348
vt 0.851160 0.700752
vt 0.822008 0.710303
vt 0.822008 0.701707
vt 0.795771 0.711689
vt 0.795771 0.703093
vt 0.546918 0.711689
vt 0.546918 0.703093
vt 0.569230 0.704857
vt 0.569230 0.713453
vt 0.520682 0.710303
vt 0.520682 0.701707
vt 0.491529 0.709348
vt 0.491529 0.700752
vt 0.460581 0.708861
vt 0.460581 0.700265
vt 0.429027 0.708861
vt 0.429027 0.700265
vt 0.398079 0.709348
vt 0.398079 0.700752
vt 0.368926 0.710303
vt 0.368926 0.701707
vt 0.342690 0.711689
vt 0.342690 0.703093
vt 0.320377 0.713453
vt 0.320377 0.704857
vt 0.773459 0.711689
vt 0.773459 0.703093
vt 0.795771 0.704857
vt 0.795771 0.713453
vt 0.747222 0.710302
vt 0.747222 0.701707
vt 0.718070 0.709347
vt 0.718070 0.700752
vt 0.687122 0.708861
vt 0.687122 0.700265
vt 0.655567 0.708861
vt 0.655567 0.700265
vt 0.624619 0.709347
vt 0.624619 0.700752
vt 0.595467 0.710302
vt 0.595467 0.701707
vt 0.569230 0.711689
vt 0.569230 0.703093
vt 0.026237 0.323528
vt 0.026237 0.332124
vt 0.000000 0.330738
vt 0.000000 0.322142
vt 0.055389 0.324483
vt 0.055389 0.333079
vt 0.086337 0.324970
vt 0.086337 0.333566
vt 0.117892 0.324970
vt 0.117892 0.333566
vt 0.148840 0.324483
vt 0.148840 0.333079
vt 0.177992 0.323528
vt 0.177992 0.332124
vt 0.204229 0.322142
vt 0.204229 0.330738
vt 0.226541 0.320377
vt 0.226541 0.328973
vt 0.973763 0.710303
vt 0.973763 0.701707
vt 1.000000 0.703093
vt 1.000000 0.711689
vt 0.944611 0.709348
vt 0.944611 0.700752
vt 0.882108 0.357133
vt 0.913663 0.357133
vt 0.851160 0.357619
vt 0.822008 0.358574
vt 0.795771 0.359961
vt 0.546918 0.359961
vt 0.569230 0.361725
vt 0.520682 0.358574
vt 0.491529 0.357619
vt 0.460581 0.357133
vt 0.429027 0.357133
vt 0.398079 0.357619
vt 0.368926 0.358574
vt 0.342690 0.359961
vt 0.320377 0.361725
vt 0.773459 0.359961
vt 0.795771 0.361725
vt 0.747222 0.358574
vt 0.718070 0.357619
vt 0.687122 0.357133
vt 0.655567 0.357133
vt 0.624619 0.357619
vt 0.595467 0.358574
vt 0.569230 0.359961
vt 0.026237 0.675256
vt 0.000000 0.673870
vt 0.055389 0.676211
vt 0.086337 0.676698
vt 0.117891 0.676698
vt 0.148840 0.676211
vt 0.177992 0.675256
vt 0.204229 0.673870
vt 0.226541 0.672105
vt 0.973763 0.358574
vt 1.000000 0.359961
vt 0.944611 0.357619
vt 0.882965 0.345593
vt 0.912807 0.345593
vt 0.853696 0.346053
vt 0.826126 0.346956
vt 0.801313 0.348267
vt 0.246895 0.351932
vt 0.238201 0.351075
vt 0.238201 0.321233
vt 0.246895 0.320377
vt 0.516564 0.346956
vt 0.541376 0.348267
vt 0.488993 0.346053
vt 0.459725 0.345593
vt 0.429883 0.345593
vt 0.400614 0.346053
vt 0.373044 0.346956
vt 0.348231 0.348267
vt 0.226541 0.351780
vt 0.235276 0.351780
vt 0.238201 0.381478
vt 0.229634 0.383182
vt 0.229634 0.320377
vt 0.238201 0.322081
vt 0.743105 0.346956
vt 0.767917 0.348267
vt 0.715534 0.346053
vt 0.686266 0.345593
vt 0.656424 0.345593
vt 0.627155 0.346053
vt 0.599585 0.346956
vt 0.574772 0.348267
vt 0.030354 0.686875
vt 0.005542 0.685563
vt 0.057925 0.687778
vt 0.087193 0.688238
vt 0.117035 0.688238
vt 0.146304 0.687778
vt 0.173874 0.686875
vt 0.198687 0.685563
vt 0.246895 0.320377
vt 0.255588 0.321233
vt 0.255588 0.351075
vt 0.246895 0.351932
vt 0.969646 0.346956
vt 0.994458 0.348267
vt 0.942075 0.346053
vt 0.882305 0.316393
vt 0.913467 0.316393
vt 0.851741 0.316874
vt 0.822952 0.317817
vt 0.797041 0.319186
vt 0.545648 0.319186
vt 0.567683 0.320928
vt 0.562478 0.349936
vt 0.519738 0.317817
vt 0.490948 0.316874
vt 0.460385 0.316393
vt 0.429223 0.316393
vt 0.398660 0.316874
vt 0.369870 0.317817
vt 0.343960 0.319186
vt 0.327130 0.349936
vt 0.321925 0.320928
vt 0.772189 0.319186
vt 0.794224 0.320928
vt 0.789019 0.349936
vt 0.746279 0.317817
vt 0.717489 0.316874
vt 0.686926 0.316393
vt 0.655764 0.316393
vt 0.625201 0.316874
vt 0.596411 0.317817
vt 0.570500 0.319186
vt 0.027180 0.716014
vt 0.001270 0.714645
vt 0.055970 0.716957
vt 0.086533 0.717438
vt 0.117695 0.717438
vt 0.148258 0.716957
vt 0.177048 0.716014
vt 0.202959 0.714645
vt 0.219788 0.683895
vt 0.224993 0.712902
vt 0.972820 0.317817
vt 0.998730 0.319186
vt 0.944030 0.316874
vn 0.0000 0.3358 -0.9419
vn 0.0000 0.9444 -0.3287
vn 0.0641 0.9444 -0.3223
vn 0.1838 0.3358 -0.9238
vn 0.1258 0.9444 -0.3037
vn 0.3605 0.3358 -0.8702
vn 0.1826 0.9444 -0.2733
vn 0.5233 0.3358 -0.7832
vn 0.2324 0.9444 -0.2324
vn 0.6660 0.3358 -0.6660
vn 0.2733 0.9444 -0.1826
vn 0.7832 0.3358 -0.5233
vn 0.3037 0.9444 -0.1258
vn 0.8702 0.3358 -0.3605
vn 0.3223 0.9444 -0.0641
vn 0.9238 0.3358 -0.1838
vn 0.3287 0.9444 0.0000
vn 0.9419 0.3358 0.0000
vn 0.3223 0.9444 0.0641
vn 0.9238 0.3358 0.1838
vn 0.3037 0.9444 0.1258
vn 0.8702 0.3358 0.3605
vn 0.2733 0.9444 0.1826
vn 0.7832 0.3358 0.5233
vn 0.2324 0.9444 0.2324
vn 0.6660 0.3358 0.6660
vn 0.1826 0.9444 0.2733
vn 0.5233 0.3358 0.7832
vn 0.1258 0.9444 0.3037
vn 0.3605 0.3358 0.8702
vn 0.0641 0.9444 0.3223
vn 0.1838 0.3358 0.9238
vn 0.0000 0.9444 0.3287
vn 0.0000 0.3358 0.9419
vn -0.0641 0.9444 0.3223
vn -0.1838 0.3358 0.9238
vn -0.1258 0.9444 0.3037
vn -0.3605 0.3358 0.8702
vn -0.1826 0.9444 0.2733
vn -0.5233 0.3358 0.7832
vn -0.2324 0.9444 0.2324
vn -0.6660 0.3358 0.6660
vn -0.2733 0.9444 0.1826
vn -0.7832 0.3358 0.5233
vn -0.3037 0.9444 0.1258
vn -0.8702 0.3358 0.3605
vn -0.3223 0.9444 0.0641
vn -0.9238 0.3358 0.1838
vn -0.3287 0.9444 0.0000
vn -0.9419 0.3358 0.0000
vn -0.3223 0.9444 -0.0641
vn -0.9238 0.3358 -0.1838
vn -0.3037 0.9444 -0.1258
vn -0.8702 0.3358 -0.3605
vn -0.2733 0.9444 -0.1826
vn -0.7832 0.3358 -0.5233
vn -0.2324 0.9444 -0.2324
vn -0.6660 0.3358 -0.6660
vn -0.1826 0.9444 -0.2733
vn -0.5233 0.3358 -0.7832
vn -0.1258 0.9444 -0.3037
vn -0.3605 0.3358 -0.8702
vn -0.0641 0.9444 -0.3223
vn -0.1838 0.3358 -0.9238
vn 0.0000 -0.6857 -0.7279
vn 0.1420 -0.6857 -0.7139
vn 0.2785 -0.6857 -0.6725
vn 0.4044 -0.6857 -0.6052
vn 0.5147 -0.6857 -0.5147
vn 0.6052 -0.6857 -0.4044
vn 0.6725 -0.6857 -0.2785
vn 0.7139 -0.6857 -0.1420
vn 0.7279 -0.6857 0.0000
vn 0.7139 -0.6857 0.1420
vn 0.6725 -0.6857 0.2785
vn 0.6052 -0.6857 0.4044
vn 0.5147 -0.6857 0.5147
vn 0.4044 -0.6857 0.6052
vn 0.2785 -0.6857 0.6725
vn 0.1420 -0.6857 0.7139
vn 0.0000 -0.6857 0.7279
vn -0.1420 -0.6857 0.7139
vn -0.2785 -0.6857 0.6725
vn -0.4044 -0.6857 0.6052
vn -0.5147 -0.6857 0.5147
vn -0.6052 -0.6857 0.4044
vn -0.6725 -0.6857 0.2785
vn -0.7139 -0.6857 0.1420
vn -0.7279 -0.6857 0.0000
vn -0.7139 -0.6857 -0.1420
vn -0.6725 -0.6857 -0.2785
vn -0.6052 -0.6857 -0.4044
vn -0.5147 -0.6857 -0.5147
vn -0.4044 -0.6857 -0.6052
vn -0.2785 -0.6857 -0.6725
vn -0.1420 -0.6857 -0.7139
vn -0.1951 0.0000 -0.9808
vn 0.0000 0.0000 -1.0000
vn -0.3827 0.0000 -0.9239
vn -0.5556 0.0000 -0.8314
vn -0.7071 0.0000 -0.7071
vn -0.8314 0.0000 -0.5556
vn -0.9239 0.0000 -0.3827
vn -0.9808 0.0000 -0.1951
vn -1.0000 0.0000 0.0000
vn -0.9808 0.0000 0.1951
vn -0.9239 0.0000 0.3827
vn -0.8314 0.0000 0.5556
vn -0.7071 0.0000 0.7071
vn -0.5556 0.0000 0.8314
vn -0.3827 0.0000 0.9239
vn -0.1951 0.0000 0.9808
vn 0.0000 0.0000 1.0000
vn 0.1951 0.0000 0.9808
vn 0.3827 0.0000 0.9239
vn 0.5556 0.0000 0.8314
vn 0.7071 0.0000 0.7071
vn 0.8314 0.0000 0.5556
vn 0.9239 0.0000 0.3827
vn 0.9808 0.0000 0.1951
vn 1.0000 0.0000 0.0000
vn 0.9808 0.0000 -0.1951
vn 0.9239 0.0000 -0.3827
vn 0.8314 0.0000 -0.5556
vn 0.7071 0.0000 -0.7071
vn 0.5556 0.0000 -0.8314
vn 0.3827 0.0000 -0.9239
vn 0.1951 0.0000 -0.9808
vn -0.1861 0.2991 -0.9359
vn 0.0000 0.2991 -0.9542
vn -0.3652 0.2991 -0.8816
vn -0.5301 0.2991 -0.7934
vn -0.6747 0.2991 -0.6747
vn -0.7934 0.2991 -0.5301
vn -0.8816 0.2991 -0.3652
vn -0.9359 0.2991 -0.1861
vn -0.9542 0.2991 0.0000
vn -0.9359 0.2991 0.1861
vn -0.8816 0.2991 0.3652
vn -0.7934 0.2991 0.5301
vn -0.6747 0.2991 0.6747
vn -0.5301 0.2991 0.7934
vn -0.3652 0.2991 0.8816
vn -0.1861 0.2991 0.9359
vn 0.0000 0.2991 0.9542
vn 0.1861 0.2991 0.9359
vn 0.3652 0.2991 0.8816
vn 0.5301 0.2991 0.7934
vn 0.6747 0.2991 0.6747
vn 0.7934 0.2991 0.5301
vn 0.8816 0.2991 0.3652
vn 0.9359 0.2991 0.1861
vn 0.9542 0.2991 0.0000
vn 0.9359 0.2991 -0.1861
vn 0.8816 0.2991 -0.3652
vn 0.7934 0.2991 -0.5301
vn 0.6747 0.2991 -0.6747
vn 0.5301 0.2991 -0.7934
vn 0.3652 0.2991 -0.8816
vn 0.1861 0.2991 -0.9359
vn -0.1912 0.1982 -0.9613
vn 0.0000 0.1982 -0.9801
vn -0.3751 0.1982 -0.9055
vn -0.5445 0.1982 -0.8149
vn -0.6930 0.1982 -0.6930
vn -0.8149 0.1982 -0.5445
vn -0.9055 0.1982 -0.3751
vn -0.9613 0.1982 -0.1912
vn -0.9801 0.1982 0.0000
vn -0.9613 0.1982 0.1912
vn -0.9055 0.1982 0.3751
vn -0.8149 0.1982 0.5445
vn -0.6930 0.1982 0.6930
vn -0.5445 0.1982 0.8149
vn -0.3751 0.1982 0.9055
vn -0.1912 0.1982 0.9613
vn 0.0000 0.1982 0.9801
vn 0.1912 0.1982 0.9613
vn 0.3751 0.1982 0.9055
vn 0.5445 0.1982 0.8149
vn 0.6930 0.1982 0.6930
vn 0.8149 0.1982 0.5445
vn 0.9055 0.1982 0.3751
vn 0.9613 0.1982 0.1912
vn 0.9801 0.1982 0.0000
vn 0.9613 0.1982 -0.1912
vn 0.9055 0.1982 -0.3751
vn 0.8149 0.1982 -0.5445
vn 0.6930 0.1982 -0.6930
vn 0.5445 0.1982 -0.8149
vn 0.3751 0.1982 -0.9055
vn 0.1912 0.1982 -0.9613
usemtl None
s 1
f 161/1/1 2/2/2 4/3/3 162/4/4
f 162/4/4 4/3/3 6/5/5 163/6/6
f 163/6/6 6/5/5 8/7/7 164/8/8
f 164/8/8 8/7/7 10/9/9 165/10/10
f 165/10/10 10/9/9 12/11/11 166/12/12
f 166/12/12 12/11/11 14/13/13 167/14/14
f 167/14/14 14/13/13 16/15/15 168/16/16
f 168/16/16 16/15/15 18/17/17 169/18/18
f 169/18/18 18/17/17 20/19/19 170/20/20
f 170/20/20 20/19/19 22/21/21 171/22/22
f 171/22/22 22/21/21 24/23/23 172/24/24
f 172/24/24 24/23/23 26/25/25 173/26/26
f 173/26/26 26/25/25 28/27/27 174/28/28
f 174/28/28 28/27/27 30/29/29 175/30/30
f 175/30/30 30/29/29 32/31/31 176/32/32
f 176/32/32 32/31/31 34/33/33 177/34/34
f 177/34/34 34/33/33 36/35/35 178/36/36
f 178/36/36 36/35/35 38/37/37 179/38/38
f 179/38/38 38/37/37 40/39/39 180/40/40
f 180/40/40 40/39/39 42/41/41 181/42/42
f 181/42/42 42/41/41 44/43/43 182/44/44
f 182/44/44 44/43/43 46/45/45 183/46/46
f 183/46/46 46/45/45 48/47/47 184/48/48
f 184/48/48 48/47/47 50/49/49 185/50/50
f 185/50/50 50/49/49 52/51/51 186/52/52
f 186/52/52 52/51/51 54/53/53 187/54/54
f 187/54/54 54/53/53 56/55/55 188/56/56
f 188/56/56 56/55/55 58/57/57 189/58/58
f 189/58/58 58/57/57 60/59/59 190/60/60
f 190/60/60 60/59/59 62/61/61 191/62/62
f 4/3/3 2/2/2 64/63/63 62/61/61 60/59/59 58/57/57 56/55/55 54/53/53 52/51/51 50/49/49 48/47/47 46/45/45 44/43/43 42/41/41 40/39/39 38/37/37 36/35/35 34/33/33 32/31/31 30/29/29 28/27/27 26/25/25 24/23/23 22/21/21 20/19/19 18/17/17 16/15/15 14/13/13 12/11/11 10/9/9 8/7/7 6/5/5
f 191/62/62 62/61/61 64/63/63 192/64/64
f 192/64/64 64/63/63 2/2/2 161/1/1
f 1/65/65 3/66/66 5/67/67 7/68/68 9/69/69 11/70/70 13/71/71 15/72/72 17/73/73 19/74/74 21/75/75 23/76/76 25/77/77 27/78/78 29/79/79 31/80/80 33/81/81 35/82/82 37/83/83 39/84/84 41/85/85 43/86/86 45/87/87 47/88/88 49/89/89 51/90/90 53/91/91 55/92/92 57/93/93 59/94/94 61/95/95 63/96/96
f 63/97/96 96/98/97 65/99/98 1/100/65
f 61/101/95 95/102/99 96/98/97 63/97/96
f 59/103/94 94/104/100 95/102/99 61/101/95
f 57/105/93 93/106/101 94/104/100 59/103/94
f 55/107/92 92/108/102 93/109/101 57/110/93
f 53/111/91 91/112/103 92/108/102 55/107/92
f 51/113/90 90/114/104 91/112/103 53/111/91
f 49/115/89 89/116/105 90/114/104 51/113/90
f 47/117/88 88/118/106 89/116/105 49/115/89
f 45/119/87 87/120/107 88/118/106 47/117/88
f 43/121/86 86/122/108 87/120/107 45/119/87
f 41/123/85 85/124/109 86/122/108 43/121/86
f 39/125/84 84/126/110 85/124/109 41/123/85
f 37/127/83 83/128/111 84/129/110 39/130/84
f 35/131/82 82/132/112 83/128/111 37/127/83
f 33/133/81 81/134/113 82/132/112 35/131/82
f 31/135/80 80/136/114 81/134/113 33/133/81
f 29/137/79 79/138/115 80/136/114 31/135/80
f 27/139/78 78/140/116 79/138/115 29/137/79
f 25/141/77 77/142/117 78/140/116 27/139/78
f 23/143/76 76/144/118 77/142/117 25/141/77
f 21/145/75 75/146/119 76/147/118 23/148/76
f 19/149/74 74/150/120 75/146/119 21/145/75
f 17/151/73 73/152/121 74/150/120 19/149/74
f 15/153/72 72/154/122 73/152/121 17/151/73
f 13/155/71 71/156/123 72/154/122 15/153/72
f 11/157/70 70/158/124 71/156/123 13/155/71
f 9/159/69 69/160/125 70/158/124 11/157/70
f 7/161/68 68/162/126 69/160/125 9/159/69
f 5/163/67 67/164/127 68/165/126 7/166/68
f 3/167/66 66/168/128 67/164/127 5/163/67
f 1/100/65 65/99/98 66/168/128 3/167/66
f 96/98/97 128/169/129 97/170/130 65/99/98
f 95/102/99 127/171/131 128/169/129 96/98/97
f 94/104/100 126/172/132 127/171/131 95/102/99
f 93/106/101 125/173/133 126/172/132 94/104/100
f 92/108/102 124/174/134 125/175/133 93/109/101
f 91/112/103 123/176/135 124/174/134 92/108/102
f 90/114/104 122/177/136 123/176/135 91/112/103
f 89/116/105 121/178/137 122/177/136 90/114/104
f 88/118/106 120/179/138 121/178/137 89/116/105
f 87/120/107 119/180/139 120/179/138 88/118/106
f 86/122/108 118/181/140 119/180/139 87/120/107
f 85/124/109 117/182/141 118/181/140 86/122/108
f 84/126/110 116/183/142 117/182/141 85/124/109
f 83/128/111 115/184/143 116/185/142 84/129/110
f 82/132/112 114/186/144 115/184/143 83/128/111
f 81/134/113 113/187/145 114/186/144 82/132/112
f 80/136/114 112/188/146 113/187/145 81/134/113
f 79/138/115 111/189/147 112/188/146 80/136/114
f 78/140/116 110/190/148 111/189/147 79/138/115
f 77/142/117 109/191/149 110/190/148 78/140/116
f 76/144/118 108/192/150 109/191/149 77/142/117
f 75/146/119 107/193/151 108/194/150 76/147/118
f 74/150/120 106/195/152 107/193/151 75/146/119
f 73/152/121 105/196/153 106/195/152 74/150/120
f 72/154/122 104/197/154 105/196/153 73/152/121
f 71/156/123 103/198/155 104/197/154 72/154/122
f 70/158/124 102/199/156 103/198/155 71/156/123
f 69/160/125 101/200/157 102/199/156 70/158/124
f 68/162/126 100/201/158 101/200/157 69/160/125
f 67/164/127 99/202/159 100/203/158 68/165/126
f 66/168/128 98/204/160 99/202/159 67/164/127
f 65/99/98 97/170/130 98/204/160 66/168/128
f 128/169/129 160/205/161 129/206/162 97/170/130
f 127/171/131 159/207/163 160/205/161 128/169/129
f 126/172/132 158/208/164 159/207/163 127/171/131
f 125/173/133 157/209/165 158/208/164 126/172/132
f 124/210/134 156/211/166 157/212/165 125/213/133
f 123/176/135 155/214/167 156/215/166 124/174/134
f 122/177/136 154/216/168 155/214/167 123/176/135
f 121/178/137 153/217/169 154/216/168 122/177/136
f 120/179/138 152/218/170 153/217/169 121/178/137
f 119/180/139 151/219/171 152/218/170 120/179/138
f 118/181/140 150/220/172 151/219/171 119/180/139
f 117/182/141 149/221/173 150/220/172 118/181/140
f 116/222/142 148/223/174 149/224/173 117/225/141
f 115/226/143 147/227/175 148/223/174 116/222/142
f 114/186/144 146/228/176 147/229/175 115/184/143
f 113/187/145 145/230/177 146/228/176 114/186/144
f 112/188/146 144/231/178 145/230/177 113/187/145
f 111/189/147 143/232/179 144/231/178 112/188/146
f 110/190/148 142/233/180 143/232/179 111/189/147
f 109/191/149 141/234/181 142/233/180 110/190/148
f 108/192/150 140/235/182 141/234/181 109/191/149
f 107/193/151 139/236/183 140/237/182 108/194/150
f 106/195/152 138/238/184 139/236/183 107/193/151
f 105/196/153 137/239/185 138/238/184 106/195/152
f 104/197/154 136/240/186 137/239/185 105/196/153
f 103/198/155 135/241/187 136/240/186 104/197/154
f 102/199/156 134/242/188 135/241/187 103/198/155
f 101/200/157 133/243/189 134/242/188 102/199/156
f 100/244/158 132/245/190 133/246/189 101/247/157
f 99/202/159 131/248/191 132/249/190 100/203/158
f 98/204/160 130/250/192 131/248/191 99/202/159
f 97/170/130 129/206/162 130/250/192 98/204/160
f 160/205/161 192/251/64 161/252/1 129/206/162
f 159/207/163 191/253/62 192/251/64 160/205/161
f 158/208/164 190/254/60 191/253/62 159/207/163
f 157/209/165 189/255/58 190/254/60 158/208/164
f 156/215/166 188/256/56 189/257/58 157/258/165
f 155/214/167 187/259/54 188/256/56 156/215/166
f 154/216/168 186/260/52 187/259/54 155/214/167
f 153/217/169 185/261/50 186/260/52 154/216/168
f 152/218/170 184/262/48 185/261/50 153/217/169
f 151/219/171 183/263/46 184/262/48 152/218/170
f 150/220/172 182/264/44 183/263/46 151/219/171
f 149/221/173 181/265/42 182/264/44 150/220/172
f 148/266/174 180/267/40 181/265/42 149/221/173
f 147/229/175 179/268/38 180/269/40 148/270/174
f 146/228/176 178/271/36 179/268/38 147/229/175
f 145/230/177 177/272/34 178/271/36 146/228/176
f 144/231/178 176/273/32 177/272/34 145/230/177
f 143/232/179 175/274/30 176/273/32 144/231/178
f 142/233/180 174/275/28 175/274/30 143/232/179
f 141/234/181 173/276/26 174/275/28 142/233/180
f 140/235/182 172/277/24 173/276/26 141/234/181
f 139/236/183 171/278/22 172/279/24 140/237/182
f 138/238/184 170/280/20 171/278/22 139/236/183
f 137/239/185 169/281/18 170/280/20 138/238/184
f 136/240/186 168/282/16 169/281/18 137/239/185
f 135/241/187 167/283/14 168/282/16 136/240/186
f 134/242/188 166/284/12 167/283/14 135/241/187
f 133/243/189 165/285/10 166/284/12 134/242/188
f 132/286/190 164/287/8 165/285/10 133/243/189
f 131/248/191 163/288/6 164/289/8 132/249/190
f 130/250/192 162/290/4 163/288/6 131/248/191
f 129/206/162 161/252/1 162/290/4 130/250/192
