<svg id="svg" version="1.1" xmlns="http://www.w3.org/2000/svg" xmlns:xlink="http://www.w3.org/1999/xlink" width="50" height="100%" viewBox="50, 50, 300, 300"><g id="svgg"><path id="path0" d="M193.000 109.652 C 181.826 110.202,183.221 109.280,179.019 118.894 C 177.070 123.352,172.510 133.660,168.884 141.800 C 165.259 149.940,161.078 159.390,159.594 162.800 C 155.439 172.348,150.455 183.668,149.820 185.000 C 149.505 185.660,148.266 188.450,147.066 191.200 C 144.253 197.645,136.540 215.041,135.804 216.600 C 135.493 217.260,133.503 221.760,131.383 226.600 C 126.865 236.912,126.510 237.718,119.614 253.313 C 111.362 271.972,110.637 270.910,131.489 270.721 C 147.050 270.579,145.521 271.101,147.996 265.093 C 150.085 260.023,151.087 257.614,161.092 233.600 C 165.721 222.490,171.440 208.720,173.800 203.000 C 179.010 190.377,187.075 171.049,187.820 169.400 C 188.119 168.740,189.641 165.050,191.202 161.200 C 194.527 153.005,196.515 148.229,197.834 145.269 C 199.214 142.173,199.823 142.520,201.926 147.605 C 204.314 153.378,207.112 160.164,208.191 162.800 C 208.686 164.010,213.143 174.720,218.096 186.600 C 223.049 198.480,228.542 211.710,230.304 216.000 C 234.311 225.761,249.312 261.822,250.625 264.850 C 251.161 266.088,251.600 267.264,251.600 267.465 C 251.600 267.666,252.120 268.453,252.756 269.215 L 253.912 270.600 268.237 270.715 C 284.042 270.842,284.514 270.782,285.449 268.544 C 286.253 266.619,286.217 266.459,283.635 260.478 C 269.476 227.676,265.777 219.081,265.010 217.200 C 264.516 215.990,262.848 212.120,261.301 208.600 C 256.865 198.503,253.597 190.973,248.975 180.200 C 241.219 162.120,236.126 150.292,233.476 144.200 C 226.682 128.581,223.393 120.970,221.311 116.048 C 219.336 111.376,218.892 110.632,217.824 110.192 C 216.116 109.488,202.388 109.190,193.000 109.652 M242.844 152.203 C 242.777 154.044,244.591 159.047,246.102 161.189 C 246.486 161.733,246.800 162.417,246.800 162.708 C 246.800 163.000,247.160 163.984,247.600 164.894 C 248.040 165.805,248.400 166.762,248.400 167.021 C 248.400 167.280,248.733 167.921,249.141 168.446 C 249.549 168.971,250.192 170.343,250.572 171.495 C 250.951 172.648,251.427 173.693,251.631 173.819 C 251.834 173.944,252.000 174.372,252.000 174.770 C 252.000 175.167,252.349 175.936,252.775 176.478 C 253.202 177.020,253.661 177.989,253.796 178.632 C 254.533 182.133,259.639 191.788,260.800 191.874 C 261.350 191.914,261.496 191.858,261.126 191.749 C 260.449 191.551,256.400 183.790,256.400 182.692 C 256.400 182.371,256.038 181.648,255.596 181.086 C 255.155 180.525,254.678 179.465,254.537 178.732 C 254.396 178.000,253.975 176.950,253.601 176.400 C 253.228 175.850,252.818 175.040,252.691 174.600 C 252.272 173.147,250.314 168.610,249.865 168.054 C 249.436 167.521,249.058 166.619,247.620 162.699 C 247.236 161.654,246.625 160.469,246.261 160.068 C 245.898 159.666,245.600 159.043,245.600 158.683 C 245.600 158.323,245.139 157.203,244.576 156.194 C 244.012 155.184,243.402 153.603,243.219 152.679 C 242.937 151.248,242.881 151.177,242.844 152.203 M156.267 155.867 C 156.120 156.013,156.000 156.535,156.000 157.027 C 156.000 157.518,155.280 159.329,154.400 161.049 C 153.520 162.770,152.800 164.366,152.800 164.596 C 152.800 164.826,152.350 165.677,151.800 166.486 C 151.250 167.295,150.800 168.393,150.800 168.925 C 150.800 169.457,150.467 170.321,150.059 170.846 C 149.652 171.371,148.933 172.839,148.462 174.108 C 147.990 175.378,147.154 177.307,146.602 178.395 C 146.051 179.483,145.600 180.577,145.600 180.825 C 145.600 181.073,145.264 181.754,144.852 182.338 C 144.441 182.922,143.967 183.850,143.799 184.400 C 143.630 184.950,142.796 186.839,141.946 188.598 C 141.096 190.357,140.400 191.998,140.400 192.244 C 140.400 192.491,140.025 193.169,139.566 193.752 C 139.107 194.335,138.559 195.440,138.347 196.206 C 138.136 196.973,137.711 197.600,137.405 197.600 C 137.098 197.600,136.752 197.754,136.636 197.942 C 136.519 198.130,136.846 198.204,137.361 198.105 C 138.300 197.926,141.869 191.405,144.033 185.917 C 144.485 184.769,145.103 183.373,145.406 182.815 C 146.329 181.116,148.680 175.863,148.994 174.800 C 149.156 174.250,149.809 172.878,150.445 171.751 C 151.080 170.625,151.600 169.344,151.600 168.905 C 151.600 168.467,151.935 167.679,152.345 167.154 C 152.755 166.629,153.228 165.750,153.397 165.200 C 153.566 164.650,154.207 163.198,154.821 161.974 C 155.435 160.750,156.107 158.815,156.314 157.674 C 156.706 155.514,156.704 155.429,156.267 155.867 M219.200 207.217 C 219.200 207.437,219.630 207.813,220.156 208.053 C 220.682 208.292,221.294 208.873,221.516 209.344 C 222.399 211.213,223.510 213.846,223.769 214.682 C 223.919 215.167,224.753 217.018,225.621 218.795 C 226.490 220.572,227.200 222.206,227.200 222.426 C 227.200 222.646,227.650 223.715,228.200 224.800 C 228.750 225.885,229.200 227.022,229.200 227.325 C 229.200 227.629,229.512 228.490,229.893 229.239 C 230.672 230.768,230.936 231.426,232.920 236.800 C 235.107 242.720,235.872 244.886,236.312 246.400 L 236.718 247.800 236.755 246.600 C 236.794 245.311,236.007 242.411,235.046 240.302 C 234.720 239.586,234.008 237.740,233.465 236.200 C 232.309 232.924,231.373 230.532,229.629 226.400 C 228.933 224.750,228.109 222.680,227.799 221.800 C 227.489 220.920,226.597 218.890,225.817 217.289 C 225.038 215.689,224.388 214.159,224.373 213.889 C 224.251 211.629,219.200 205.114,219.200 207.217 M177.600 208.908 C 176.973 209.218,176.097 210.448,175.251 212.202 C 174.509 213.741,173.474 215.855,172.951 216.900 C 172.428 217.945,171.999 219.115,171.997 219.500 C 171.996 219.885,171.637 220.740,171.200 221.400 C 170.763 222.060,170.404 222.940,170.403 223.355 C 170.401 223.770,169.692 225.570,168.828 227.355 C 167.963 229.140,166.992 231.320,166.671 232.200 C 165.821 234.528,164.166 238.782,162.157 243.800 C 160.838 247.095,160.406 248.702,160.437 250.200 L 160.478 252.200 160.967 249.800 C 161.236 248.480,161.835 246.584,162.299 245.586 C 162.762 244.588,163.265 243.282,163.415 242.682 C 163.566 242.083,163.832 241.504,164.007 241.395 C 164.183 241.287,164.628 240.164,164.998 238.899 C 165.804 236.141,166.745 233.811,169.011 228.955 C 169.947 226.950,170.845 224.700,171.008 223.955 C 171.171 223.210,171.641 222.171,172.052 221.646 C 172.463 221.121,172.800 220.216,172.800 219.635 C 172.800 219.054,173.114 218.133,173.497 217.589 C 173.881 217.045,174.503 215.729,174.880 214.665 C 175.837 211.961,177.523 209.200,178.217 209.200 C 178.538 209.200,178.800 209.020,178.800 208.800 C 178.800 208.306,178.817 208.304,177.600 208.908 M190.300 295.499 C 194.315 295.565,200.885 295.565,204.900 295.499 C 208.915 295.434,205.630 295.381,197.600 295.381 C 189.570 295.381,186.285 295.434,190.300 295.499 " stroke="none" fill="#8cc4cc" fill-rule="evenodd"></path><path id="path1" d="M112.228 131.747 C 110.345 133.524,110.151 137.284,111.792 140.223 C 112.338 141.200,112.714 142.000,112.627 142.000 C 112.541 142.000,113.099 143.485,113.868 145.300 C 114.636 147.115,115.424 149.117,115.619 149.749 C 115.813 150.381,116.249 151.320,116.586 151.835 C 116.924 152.350,117.200 152.954,117.200 153.176 C 117.200 153.398,117.756 154.799,118.435 156.290 C 119.114 157.780,119.942 159.630,120.275 160.400 C 120.607 161.170,121.222 162.455,121.640 163.254 C 122.058 164.054,122.400 164.936,122.400 165.214 C 122.400 165.493,122.880 166.728,123.467 167.960 C 124.623 170.390,125.480 172.289,126.823 175.400 C 127.298 176.500,128.117 178.318,128.643 179.440 C 129.169 180.562,129.600 181.597,129.600 181.741 C 129.600 182.018,132.605 188.581,134.101 191.571 C 134.588 192.545,134.990 193.535,134.994 193.771 C 135.040 196.618,137.700 198.549,138.347 196.206 C 138.559 195.440,139.107 194.335,139.566 193.752 C 140.025 193.169,140.400 192.491,140.400 192.244 C 140.400 191.998,141.096 190.357,141.946 188.598 C 142.796 186.839,143.630 184.950,143.799 184.400 C 143.967 183.850,144.441 182.922,144.852 182.338 C 145.264 181.754,145.600 181.073,145.600 180.825 C 145.600 180.577,146.051 179.483,146.602 178.395 C 147.154 177.307,147.990 175.378,148.462 174.108 C 148.933 172.839,149.652 171.371,150.059 170.846 C 150.467 170.321,150.800 169.457,150.800 168.925 C 150.800 168.393,151.250 167.295,151.800 166.486 C 152.350 165.677,152.800 164.838,152.800 164.623 C 152.800 164.407,153.545 162.748,154.455 160.936 C 156.463 156.940,156.718 154.123,155.339 151.200 C 154.871 150.210,153.903 147.960,153.187 146.200 C 152.471 144.440,151.731 142.829,151.543 142.620 C 151.354 142.411,151.200 141.938,151.200 141.569 C 151.200 141.200,150.936 140.679,150.613 140.411 C 150.290 140.143,150.065 139.802,150.113 139.653 C 150.216 139.333,149.107 136.590,147.746 133.799 C 146.043 130.307,146.558 130.400,128.996 130.400 L 113.657 130.400 112.228 131.747 M252.000 131.080 C 250.731 131.963,249.631 133.257,249.613 133.888 C 249.606 134.157,249.166 135.327,248.635 136.488 C 248.104 137.650,246.829 140.580,245.802 143.000 C 244.775 145.420,243.716 147.850,243.448 148.400 C 242.676 149.986,243.084 153.135,244.408 155.807 C 245.063 157.130,245.600 158.466,245.600 158.775 C 245.600 159.084,245.898 159.666,246.261 160.068 C 246.625 160.469,247.236 161.654,247.620 162.699 C 249.058 166.619,249.436 167.521,249.865 168.054 C 250.314 168.610,252.272 173.147,252.691 174.600 C 252.818 175.040,253.228 175.850,253.601 176.400 C 253.975 176.950,254.396 178.000,254.537 178.732 C 254.678 179.465,255.155 180.525,255.596 181.086 C 256.038 181.648,256.400 182.371,256.400 182.692 C 256.400 183.815,260.469 191.600,261.056 191.600 C 261.527 191.600,264.549 185.903,264.981 184.200 C 265.037 183.980,265.668 182.540,266.384 181.000 C 267.099 179.460,268.048 177.390,268.491 176.400 C 268.935 175.410,269.882 173.340,270.597 171.800 C 271.311 170.260,273.208 166.030,274.812 162.400 C 276.416 158.770,278.440 154.270,279.309 152.400 C 280.178 150.530,281.238 148.115,281.665 147.032 C 282.092 145.950,282.776 144.330,283.185 143.432 C 286.102 137.024,286.389 133.909,284.258 131.778 L 282.917 130.437 267.958 130.410 C 254.370 130.386,252.908 130.447,252.000 131.080 M217.539 211.100 C 216.743 213.025,215.427 216.310,214.616 218.400 C 213.805 220.490,212.802 222.920,212.387 223.800 C 211.972 224.680,211.371 226.120,211.051 227.000 C 209.570 231.072,209.075 232.323,208.130 234.386 C 207.573 235.604,206.846 237.320,206.516 238.200 C 205.894 239.855,205.220 241.428,203.515 245.200 C 202.968 246.410,202.115 248.390,201.618 249.600 C 201.122 250.810,200.262 252.762,199.708 253.939 L 198.700 256.077 198.116 254.739 C 197.795 254.002,197.188 252.630,196.766 251.689 C 196.345 250.748,196.000 249.739,196.000 249.445 C 196.000 249.152,195.553 248.253,195.006 247.447 C 194.460 246.642,193.930 245.582,193.829 245.091 C 193.645 244.204,191.643 239.213,190.888 237.762 C 190.670 237.343,190.090 236.010,189.601 234.800 C 189.111 233.590,188.290 231.610,187.778 230.400 C 187.265 229.190,186.277 226.670,185.583 224.800 C 184.889 222.930,184.160 221.203,183.964 220.963 C 183.768 220.723,183.710 220.424,183.835 220.298 C 183.961 220.172,183.794 219.649,183.464 219.135 C 182.965 218.357,181.839 215.633,179.577 209.732 C 178.802 207.712,176.477 210.154,174.880 214.665 C 174.503 215.729,173.881 217.045,173.497 217.589 C 173.114 218.133,172.800 219.054,172.800 219.635 C 172.800 220.216,172.463 221.121,172.052 221.646 C 171.641 222.171,171.171 223.210,171.008 223.955 C 170.845 224.700,169.947 226.950,169.011 228.955 C 166.745 233.811,165.804 236.141,164.998 238.899 C 164.628 240.164,164.183 241.287,164.007 241.395 C 163.832 241.504,163.566 242.083,163.415 242.682 C 163.265 243.282,162.763 244.588,162.301 245.586 C 161.207 247.948,160.398 252.200,160.787 253.544 C 161.082 254.564,163.501 260.544,164.611 263.000 C 164.909 263.660,166.531 267.440,168.214 271.400 C 169.897 275.360,171.596 279.320,171.990 280.200 C 172.384 281.080,173.279 283.150,173.979 284.800 C 178.846 296.268,176.562 295.253,197.460 295.240 L 214.525 295.230 215.699 294.115 C 217.045 292.836,218.128 290.643,224.253 276.800 C 224.788 275.590,225.734 273.520,226.355 272.200 C 227.370 270.043,228.133 268.326,230.713 262.400 C 231.798 259.908,234.060 254.703,235.387 251.642 C 236.667 248.692,236.614 246.569,235.165 242.800 C 234.700 241.590,233.689 238.890,232.918 236.800 C 230.945 231.448,230.674 230.773,229.893 229.239 C 229.512 228.490,229.200 227.629,229.200 227.325 C 229.200 227.022,228.750 225.885,228.200 224.800 C 227.650 223.715,227.200 222.646,227.200 222.426 C 227.200 222.206,226.490 220.572,225.621 218.795 C 224.753 217.018,223.919 215.167,223.769 214.682 C 223.510 213.846,222.399 211.213,221.516 209.344 C 221.204 208.682,219.689 207.600,219.075 207.600 C 219.027 207.600,218.336 209.175,217.539 211.100 " stroke="none" fill="#046cac" fill-rule="evenodd"></path><path id="path2" d="M182.428 104.243 C 179.431 104.898,175.600 108.176,175.600 110.086 C 175.600 110.630,175.240 111.402,174.800 111.800 C 174.360 112.198,174.000 112.859,174.000 113.267 C 174.000 113.676,173.848 114.323,173.662 114.705 C 172.855 116.367,172.466 117.111,171.464 118.914 C 170.879 119.967,170.400 121.111,170.400 121.456 C 170.400 121.801,169.950 122.980,169.400 124.075 C 168.850 125.170,168.400 126.293,168.400 126.571 C 168.400 126.849,168.068 127.377,167.662 127.744 C 167.256 128.111,166.695 129.174,166.414 130.106 C 166.133 131.038,164.935 133.746,163.752 136.126 C 162.568 138.505,161.600 140.684,161.600 140.969 C 161.600 141.253,160.970 142.695,160.200 144.172 C 159.430 145.649,158.800 147.194,158.800 147.605 C 158.800 148.016,158.641 148.451,158.446 148.571 C 158.251 148.692,157.996 149.287,157.879 149.895 C 157.762 150.503,157.457 151.720,157.201 152.600 C 156.946 153.480,156.669 154.830,156.586 155.600 C 156.275 158.476,155.906 159.809,154.820 161.975 C 154.206 163.199,153.566 164.650,153.397 165.200 C 153.228 165.750,152.755 166.629,152.345 167.154 C 151.935 167.679,151.600 168.467,151.600 168.905 C 151.600 169.344,151.080 170.625,150.445 171.751 C 149.809 172.878,149.156 174.250,148.994 174.800 C 148.680 175.863,146.329 181.116,145.406 182.815 C 145.103 183.373,144.485 184.769,144.033 185.917 C 141.622 192.034,138.317 197.917,137.162 198.148 C 136.335 198.313,135.947 198.682,135.750 199.488 C 135.601 200.100,134.966 201.667,134.339 202.971 C 133.713 204.275,133.194 205.625,133.187 205.971 C 133.180 206.317,132.910 206.949,132.587 207.376 C 132.264 207.804,132.000 208.558,132.000 209.053 C 132.000 209.548,131.820 210.064,131.600 210.200 C 131.380 210.336,131.200 210.859,131.200 211.362 C 131.200 211.865,130.840 212.602,130.400 213.000 C 129.960 213.398,129.600 214.154,129.600 214.680 C 129.600 215.206,129.150 216.086,128.600 216.636 C 128.050 217.186,127.600 217.983,127.600 218.406 C 127.600 218.829,127.240 219.817,126.800 220.600 C 126.360 221.383,126.000 222.387,126.000 222.830 C 126.000 223.274,125.550 224.086,125.000 224.636 C 124.450 225.186,124.000 225.995,124.000 226.434 C 124.000 226.873,123.640 227.938,123.200 228.800 C 122.760 229.662,122.400 230.653,122.400 231.001 C 122.400 231.349,122.033 232.027,121.585 232.509 C 121.136 232.990,120.660 233.838,120.528 234.392 C 120.395 234.946,119.952 236.068,119.543 236.884 C 119.134 237.700,118.800 238.735,118.800 239.184 C 118.800 239.633,118.653 240.000,118.473 240.000 C 118.055 240.000,115.200 245.342,115.200 246.123 C 115.200 246.445,114.390 248.270,113.400 250.178 C 112.410 252.087,111.600 253.889,111.600 254.183 C 111.600 254.478,111.060 255.745,110.400 257.000 C 109.740 258.255,109.197 259.758,109.194 260.341 C 109.191 260.923,108.929 262.120,108.612 263.000 C 107.850 265.113,107.846 269.094,108.602 270.546 C 108.931 271.176,109.200 272.087,109.200 272.571 C 109.200 273.756,111.160 275.561,113.055 276.120 C 114.869 276.655,145.481 276.754,147.400 276.231 C 149.695 275.605,154.000 270.315,154.000 268.121 C 154.000 267.835,154.166 267.600,154.368 267.600 C 154.571 267.600,154.858 267.045,155.007 266.366 C 155.157 265.687,155.801 264.139,156.439 262.925 C 157.078 261.712,157.600 260.394,157.600 259.996 C 157.600 259.599,158.230 258.107,159.000 256.681 C 160.240 254.386,160.400 253.752,160.398 251.145 C 160.396 248.594,160.631 247.611,162.157 243.800 C 164.166 238.782,165.821 234.528,166.671 232.200 C 166.992 231.320,167.963 229.140,168.828 227.355 C 169.692 225.570,170.401 223.770,170.403 223.355 C 170.404 222.940,170.763 222.060,171.200 221.400 C 171.637 220.740,171.996 219.885,171.997 219.500 C 171.999 219.115,172.435 217.945,172.967 216.900 C 173.499 215.855,174.433 213.871,175.044 212.492 C 176.270 209.723,177.084 208.789,178.355 208.693 C 178.820 208.658,179.200 208.389,179.200 208.096 C 179.200 207.802,179.560 206.816,180.000 205.906 C 180.440 204.995,180.800 204.019,180.800 203.737 C 180.800 203.455,181.160 202.583,181.600 201.800 C 182.040 201.017,182.400 200.111,182.400 199.788 C 182.400 199.465,182.545 199.200,182.723 199.200 C 183.074 199.200,184.400 196.415,184.400 195.678 C 184.400 195.428,184.760 194.583,185.200 193.800 C 185.640 193.017,186.000 192.040,186.000 191.629 C 186.000 191.218,186.448 190.098,186.995 189.141 C 187.543 188.183,187.993 187.166,187.995 186.881 C 187.998 186.595,188.360 185.616,188.800 184.706 C 189.240 183.795,189.600 182.820,189.600 182.539 C 189.600 182.258,190.050 181.222,190.600 180.237 C 191.150 179.252,191.600 178.086,191.600 177.647 C 191.600 177.207,191.780 176.736,192.000 176.600 C 192.220 176.464,192.400 176.001,192.400 175.571 C 192.400 175.141,192.580 174.432,192.800 173.995 C 193.020 173.558,193.380 172.842,193.600 172.405 C 193.820 171.968,194.000 171.357,194.000 171.046 C 194.000 170.736,194.448 169.698,194.995 168.741 C 195.543 167.783,195.997 166.730,196.004 166.400 C 196.012 166.070,196.370 165.350,196.800 164.800 C 197.230 164.250,197.586 163.502,197.591 163.138 C 197.599 162.543,199.246 159.074,199.411 159.305 C 200.182 160.386,202.400 165.075,202.400 165.625 C 202.400 166.038,202.738 166.978,203.152 167.715 C 203.566 168.451,204.030 169.627,204.184 170.327 C 204.338 171.027,204.629 171.600,204.832 171.600 C 205.034 171.600,205.200 171.865,205.200 172.188 C 205.200 172.511,205.560 173.417,206.000 174.200 C 206.440 174.983,206.800 176.076,206.800 176.628 C 206.800 177.180,207.138 178.300,207.551 179.116 C 207.964 179.932,208.429 181.185,208.583 181.900 C 208.737 182.615,209.000 183.200,209.168 183.200 C 209.335 183.200,209.702 183.965,209.982 184.900 C 210.263 185.835,210.820 187.320,211.220 188.200 C 211.620 189.080,212.072 190.236,212.223 190.769 C 212.374 191.302,212.836 192.101,213.249 192.545 C 213.662 192.988,214.000 193.671,214.000 194.063 C 214.000 194.455,214.360 195.417,214.800 196.200 C 215.240 196.983,215.602 197.934,215.605 198.312 C 215.607 198.690,216.057 199.783,216.605 200.741 C 217.152 201.698,217.600 202.813,217.600 203.217 C 217.600 203.622,217.780 204.064,218.000 204.200 C 218.220 204.336,218.400 204.769,218.400 205.162 C 218.400 205.941,219.492 207.078,220.903 207.767 C 221.723 208.168,224.311 212.733,224.373 213.889 C 224.388 214.159,225.038 215.689,225.817 217.289 C 226.597 218.890,227.489 220.920,227.799 221.800 C 228.109 222.680,228.933 224.750,229.629 226.400 C 231.373 230.532,232.309 232.924,233.465 236.200 C 234.008 237.740,234.723 239.592,235.053 240.316 C 236.273 242.992,236.873 245.718,236.617 247.423 C 236.423 248.720,236.554 249.450,237.182 250.568 C 237.632 251.369,238.000 252.355,238.000 252.758 C 238.000 253.162,238.360 253.950,238.800 254.509 C 239.240 255.069,239.600 256.075,239.600 256.745 C 239.600 257.512,239.971 258.335,240.600 258.964 C 241.150 259.514,241.600 260.326,241.600 260.770 C 241.600 261.213,241.960 262.217,242.400 263.000 C 242.840 263.783,243.200 264.751,243.200 265.150 C 243.200 265.549,243.650 266.399,244.200 267.038 C 244.749 267.677,245.199 268.480,245.200 268.821 C 245.201 271.210,248.588 275.557,250.891 276.127 C 253.218 276.703,284.799 276.961,285.351 276.409 C 285.576 276.184,286.088 276.000,286.489 276.000 C 288.873 276.000,291.999 270.866,292.001 266.946 C 292.002 264.692,290.855 259.600,290.346 259.600 C 290.156 259.600,290.000 259.155,290.000 258.612 C 290.000 258.069,289.640 256.983,289.200 256.200 C 288.760 255.417,288.398 254.466,288.395 254.088 C 288.393 253.710,287.943 252.617,287.395 251.659 C 286.848 250.702,286.400 249.664,286.400 249.354 C 286.400 249.043,286.236 248.477,286.035 248.095 C 285.834 247.713,285.196 246.410,284.617 245.200 C 284.039 243.990,283.037 242.010,282.391 240.800 C 281.746 239.590,281.213 238.268,281.209 237.863 C 281.204 237.458,280.840 236.669,280.400 236.109 C 279.960 235.550,279.600 234.589,279.600 233.975 C 279.600 233.360,279.330 232.587,279.000 232.257 C 278.670 231.927,278.400 231.483,278.400 231.269 C 278.400 231.056,277.860 229.855,277.200 228.600 C 276.540 227.345,276.000 225.991,276.000 225.590 C 276.000 225.189,275.550 224.327,275.000 223.673 C 274.450 223.019,273.996 221.970,273.991 221.342 C 273.986 220.714,273.630 219.750,273.200 219.200 C 272.770 218.650,272.414 217.981,272.409 217.714 C 272.404 217.446,271.590 215.633,270.600 213.685 C 269.610 211.736,268.800 209.761,268.800 209.295 C 268.800 208.829,268.620 208.336,268.401 208.200 C 267.800 207.829,266.000 203.843,266.000 202.885 C 266.000 202.424,265.820 201.936,265.600 201.800 C 265.380 201.664,265.200 201.227,265.200 200.829 C 265.200 200.431,264.580 198.895,263.823 197.416 C 263.065 195.937,262.390 194.159,262.323 193.465 C 262.220 192.412,262.001 192.170,261.000 192.002 C 259.636 191.772,254.590 182.407,253.796 178.632 C 253.661 177.989,253.202 177.020,252.775 176.478 C 252.349 175.936,252.000 175.167,252.000 174.770 C 252.000 174.372,251.834 173.944,251.631 173.819 C 251.427 173.693,250.951 172.648,250.572 171.495 C 250.192 170.343,249.549 168.971,249.141 168.446 C 248.733 167.921,248.400 167.280,248.400 167.021 C 248.400 166.762,248.040 165.805,247.600 164.894 C 247.160 163.984,246.800 163.000,246.800 162.708 C 246.800 162.417,246.486 161.733,246.102 161.189 C 245.368 160.149,243.804 156.632,243.173 154.603 C 242.968 153.944,242.800 152.457,242.800 151.297 C 242.800 150.138,242.620 148.832,242.400 148.395 C 242.180 147.958,241.820 147.242,241.600 146.805 C 241.380 146.368,241.200 145.659,241.200 145.229 C 241.200 144.799,241.020 144.336,240.800 144.200 C 240.580 144.064,240.400 143.613,240.400 143.198 C 240.400 142.782,239.950 141.596,239.400 140.562 C 238.850 139.527,238.400 138.465,238.400 138.202 C 238.400 137.938,237.410 135.735,236.200 133.306 C 234.990 130.877,234.000 128.687,234.000 128.439 C 234.000 127.981,233.937 127.837,232.450 124.946 C 231.983 124.036,231.600 122.923,231.600 122.474 C 231.600 122.025,231.375 121.412,231.100 121.113 C 230.263 120.202,229.600 118.852,229.600 118.058 C 229.600 117.644,228.790 115.718,227.800 113.778 C 226.810 111.838,226.000 109.963,226.000 109.612 C 226.000 108.553,221.957 104.887,220.050 104.216 C 217.605 103.356,186.382 103.378,182.428 104.243 M217.824 110.192 C 218.892 110.632,219.336 111.376,221.311 116.048 C 223.393 120.970,226.682 128.581,233.476 144.200 C 236.126 150.292,241.219 162.120,248.975 180.200 C 253.597 190.973,256.865 198.503,261.301 208.600 C 262.848 212.120,264.516 215.990,265.010 217.200 C 265.777 219.081,269.476 227.676,283.635 260.478 C 286.217 266.459,286.253 266.619,285.449 268.544 C 284.514 270.782,284.042 270.842,268.237 270.715 L 253.912 270.600 252.756 269.215 C 252.120 268.453,251.600 267.666,251.600 267.465 C 251.600 267.264,251.161 266.088,250.625 264.850 C 249.312 261.822,234.311 225.761,230.304 216.000 C 228.542 211.710,223.049 198.480,218.096 186.600 C 213.143 174.720,208.686 164.010,208.191 162.800 C 207.112 160.164,204.314 153.378,201.926 147.605 C 199.823 142.520,199.214 142.173,197.834 145.269 C 196.515 148.229,194.527 153.005,191.202 161.200 C 189.641 165.050,188.119 168.740,187.820 169.400 C 187.075 171.049,179.010 190.377,173.800 203.000 C 171.440 208.720,165.721 222.490,161.092 233.600 C 151.087 257.614,150.085 260.023,147.996 265.093 C 145.521 271.101,147.050 270.579,131.489 270.721 C 110.637 270.910,111.362 271.972,119.614 253.313 C 126.510 237.718,126.865 236.912,131.383 226.600 C 133.503 221.760,135.493 217.260,135.804 216.600 C 136.540 215.041,144.253 197.645,147.066 191.200 C 148.266 188.450,149.505 185.660,149.820 185.000 C 150.455 183.668,155.439 172.348,159.594 162.800 C 161.078 159.390,165.259 149.940,168.884 141.800 C 172.510 133.660,177.070 123.352,179.019 118.894 C 182.492 110.948,182.590 110.780,183.981 110.407 C 188.198 109.276,215.183 109.104,217.824 110.192 " stroke="none" fill="#f8fafa" fill-rule="evenodd"></path></g></svg>
