# Blender v3.0.1 OBJ File: 'Filter.blend'
# www.blender.org
mtllib Filter.mtl
o Filter_Cylinder
v 0.000000 -0.005000 -0.113909
v 0.000000 0.005000 -0.113909
v 0.039018 -0.005000 -0.110066
v 0.039018 0.005000 -0.110066
v 0.076537 -0.005000 -0.098685
v 0.076537 0.005000 -0.098685
v 0.111114 -0.005000 -0.080203
v 0.111114 0.005000 -0.080203
v 0.141421 -0.005000 -0.055331
v 0.141421 0.005000 -0.055331
v -0.141421 -0.005000 -0.055331
v -0.141421 0.005000 -0.055331
v -0.111114 -0.005000 -0.080203
v -0.111114 0.005000 -0.080203
v -0.076537 -0.005000 -0.098685
v -0.076537 0.005000 -0.098685
v -0.039018 -0.005000 -0.110066
v -0.039018 0.005000 -0.110066
v -0.141401 0.005000 -0.055328
v -0.073296 0.005000 0.085477
v 0.076322 0.005000 0.085736
v 0.141429 -0.005000 -0.055271
v 0.075413 -0.005000 0.085431
v -0.073401 -0.005000 0.083661
vt 0.976256 0.361704
vt 1.000000 0.275698
vt 1.000000 0.361704
vt 0.976256 0.275698
vt 1.000000 0.184395
vt 0.976256 0.184395
vt 1.000000 0.091303
vt 0.976256 0.091303
vt 1.000000 0.000000
vt 0.944972 0.527576
vt 0.968688 0.896348
vt 0.944865 0.896598
vt 0.976256 0.526351
vt 0.944865 0.371299
vt 0.968729 0.367802
vt 0.952532 0.000000
vt 0.976256 0.000461
vt 0.968688 0.889163
vt 0.992431 0.797860
vt 0.992431 0.889163
vt 0.968688 0.797860
vt 0.992431 0.704768
vt 0.079575 0.599512
vt 0.035834 0.517337
vt 0.473719 0.517583
vt 0.968688 0.704768
vt 0.992431 0.613464
vt 0.968688 0.613464
vt 0.992431 0.527459
vt 0.512026 0.518722
vt 0.483945 0.429966
vt 0.944865 0.506127
vt 0.008965 0.428207
vt 0.000000 0.335547
vt 0.009285 0.242920
vt 0.473719 0.162333
vt 0.036462 0.153883
vt 0.080487 0.071859
vt 0.139668 0.000000
vt 0.139674 0.000049
vt 0.138508 0.671575
vt 0.976256 0.000000
vt 0.968688 0.527459
vt 0.952554 0.527459
vt 0.968688 0.527459
vt 0.473719 0.337438
vt 0.481741 0.244692
vt 0.944865 0.152761
vt 0.507703 0.155293
vt 0.550607 0.072677
vt 0.608804 0.000019
vt 0.608945 0.000000
vt 0.616791 0.671547
vt 0.556883 0.600294
vn 0.0000 0.6857 -0.7279
vn 0.1420 -0.6857 -0.7139
vn 0.0000 -0.6857 -0.7279
vn 0.1420 0.6857 -0.7139
vn 0.2785 -0.6857 -0.6725
vn 0.2785 0.6857 -0.6725
vn 0.4044 -0.6857 -0.6052
vn 0.4044 0.6857 -0.6052
vn 0.3494 -0.8347 -0.4257
vn 0.4730 -0.8535 0.2184
vn 0.4517 0.5754 0.6818
vn 0.4012 -0.6312 0.6638
vn -0.4248 0.5488 0.7199
vn -0.4272 -0.6586 0.6195
vn -0.3194 0.9346 0.1562
vn -0.7888 -0.5901 -0.1718
vn -0.5630 0.4607 -0.6861
vn -0.4044 -0.6857 -0.6052
vn -0.4044 0.6856 -0.6052
vn -0.2785 -0.6857 -0.6725
vn -0.2785 0.6857 -0.6725
vn -0.1420 -0.6857 -0.7139
vn -0.1420 0.6857 -0.7139
vn 0.7841 0.5936 -0.1810
usemtl Filter
s 1
f 2/1/1 3/2/2 1/3/3
f 4/4/4 5/5/5 3/2/2
f 6/6/6 7/7/7 5/5/5
f 8/8/8 9/9/9 7/7/7
f 22/10/10 21/11/11 23/12/12
f 23/13/12 20/14/13 24/15/14
f 24/15/14 19/16/15 11/17/16
f 12/18/17 13/19/18 11/20/16
f 14/21/19 15/22/20 13/19/18
f 8/23/8 6/24/6 21/25/11
f 16/26/21 17/27/22 15/22/20
f 18/28/23 1/29/3 17/27/22
f 15/30/20 17/31/22 24/32/14
f 6/24/6 4/33/4 21/25/11
f 4/33/4 2/34/1 21/25/11
f 2/34/1 18/35/23 20/36/13
f 18/35/23 16/37/21 20/36/13
f 16/37/21 14/38/19 20/36/13
f 14/38/19 12/39/17 19/40/15
f 19/40/15 20/36/13 14/38/19
f 20/36/13 21/25/11 2/34/1
f 10/41/24 8/23/8 21/25/11
f 2/1/1 4/4/4 3/2/2
f 4/4/4 6/6/6 5/5/5
f 6/6/6 8/8/8 7/7/7
f 8/8/8 10/42/24 9/9/9
f 22/10/10 10/43/24 21/11/11
f 23/13/12 21/44/11 20/14/13
f 24/15/14 20/14/13 19/16/15
f 12/18/17 14/21/19 13/19/18
f 14/21/19 16/26/21 15/22/20
f 16/26/21 18/28/23 17/27/22
f 18/28/23 2/45/1 1/29/3
f 17/31/22 1/46/3 24/32/14
f 1/46/3 3/47/2 23/48/12
f 24/32/14 1/46/3 23/48/12
f 3/47/2 5/49/5 23/48/12
f 5/49/5 7/50/7 23/48/12
f 7/50/7 9/51/9 22/52/10
f 22/52/10 23/48/12 7/50/7
f 24/32/14 11/53/16 13/54/18
f 13/54/18 15/30/20 24/32/14
