# Blender v3.0.1 OBJ File: 'Coffeemachine.blend'
# www.blender.org
mtllib CoffeemachineMesh.mtl
o CoffeemachineClosedMesh_Cylinder.001
v 71.910820 310.673431 -81.595360
v 71.910820 -2.668304 -81.595360
v 84.873108 310.673431 -66.912193
v 84.873108 -2.668304 -66.912193
v 94.166458 310.673431 -49.215965
v 94.166458 -2.668304 -49.215965
v 99.433739 310.673431 -29.186752
v 99.433739 -2.668304 -29.186752
v 100.472527 310.673431 -7.594231
v 100.472527 -2.668304 -7.594231
v 97.242912 310.673431 14.731785
v 97.242912 -2.668304 14.731785
v 89.868988 310.673431 36.933331
v 89.868988 -2.668304 36.933331
v 78.634148 310.673431 58.157204
v 78.634148 -2.668304 58.157204
v 63.970139 310.673431 77.587799
v 63.970139 -2.668304 77.587799
v 46.440468 310.673431 94.478386
v 46.440468 -2.668304 94.478386
v 26.718836 310.673431 108.179886
v 26.718836 -2.668304 108.179886
v 5.563086 310.673431 118.165756
v 5.563086 -2.668304 118.165756
v -16.213762 310.673431 124.052238
v -16.213762 -2.668304 124.052238
v -37.774841 310.673431 125.613136
v -37.774841 -2.668304 125.613136
v -58.291527 310.673431 122.788429
v -58.291527 -2.668304 122.788429
v -76.975449 310.673431 115.686707
v -76.975449 -2.668304 115.686707
v -93.108536 310.673431 104.580856
v -93.108536 -2.668304 104.580856
v -106.070816 310.673431 89.897705
v -106.070816 -2.668304 89.897705
v -115.364166 310.673431 72.201477
v -115.364166 -2.668304 72.201477
v -120.631447 310.673431 52.172241
v -120.631447 -2.668304 52.172241
v -121.670235 310.673431 30.579750
v -121.670235 -2.668304 30.579750
v -118.440636 310.673431 8.253742
v -118.440636 -2.668304 8.253742
v -111.066711 310.673431 -13.947811
v -111.066711 -2.668304 -13.947811
v -99.831856 310.673431 -35.171696
v -99.831856 -2.668304 -35.171696
v -85.167847 310.673431 -54.602287
v -85.167847 -2.668304 -54.602287
v -67.638168 310.673431 -71.492889
v -67.638168 -2.668304 -71.492889
v -47.916512 310.673431 -85.194397
v -47.916512 -2.668304 -85.194397
v -26.760801 310.673431 -95.180244
v -26.760801 -2.668304 -95.180244
v -4.983961 310.673431 -101.066742
v -4.983961 -2.668304 -101.066742
v 16.577116 310.673431 -102.627632
v 16.577116 -2.668304 -102.627632
v 37.093834 310.673431 -99.802933
v 37.093834 -2.668304 -99.802933
v 55.777740 310.673431 -92.701202
v 55.777740 -2.668304 -92.701202
vt 1.000000 0.500000
vt 0.968750 0.500000
vt 0.968750 1.000000
vt 1.000000 1.000000
vt 0.937500 0.500000
vt 0.937500 1.000000
vt 0.906250 0.500000
vt 0.906250 1.000000
vt 0.875000 0.500000
vt 0.875000 1.000000
vt 0.843750 0.500000
vt 0.843750 1.000000
vt 0.812500 0.500000
vt 0.812500 1.000000
vt 0.781250 0.500000
vt 0.781250 1.000000
vt 0.750000 0.500000
vt 0.750000 1.000000
vt 0.718750 0.500000
vt 0.718750 1.000000
vt 0.687500 0.500000
vt 0.687500 1.000000
vt 0.656250 0.500000
vt 0.656250 1.000000
vt 0.625000 0.500000
vt 0.625000 1.000000
vt 0.593750 0.500000
vt 0.593750 1.000000
vt 0.562500 0.500000
vt 0.562500 1.000000
vt 0.531250 0.500000
vt 0.531250 1.000000
vt 0.500000 0.500000
vt 0.500000 1.000000
vt 0.468750 0.500000
vt 0.468750 1.000000
vt 0.437500 0.500000
vt 0.437500 1.000000
vt 0.406250 0.500000
vt 0.406250 1.000000
vt 0.375000 0.500000
vt 0.375000 1.000000
vt 0.343750 0.500000
vt 0.343750 1.000000
vt 0.312500 0.500000
vt 0.312500 1.000000
vt 0.281250 0.500000
vt 0.281250 1.000000
vt 0.250000 0.500000
vt 0.250000 1.000000
vt 0.218750 0.500000
vt 0.218750 1.000000
vt 0.187500 0.500000
vt 0.187500 1.000000
vt 0.156250 0.500000
vt 0.156250 1.000000
vt 0.125000 0.500000
vt 0.125000 1.000000
vt 0.093750 0.500000
vt 0.093750 1.000000
vt 0.062500 0.500000
vt 0.062500 1.000000
vt 0.296822 0.485388
vt 0.341844 0.471731
vt 0.383337 0.449553
vt 0.419706 0.419706
vt 0.449553 0.383337
vt 0.471731 0.341844
vt 0.485388 0.296822
vt 0.490000 0.250000
vt 0.485388 0.203178
vt 0.471731 0.158156
vt 0.449553 0.116663
vt 0.419706 0.080294
vt 0.383337 0.050447
vt 0.341844 0.028269
vt 0.296822 0.014612
vt 0.250000 0.010000
vt 0.203178 0.014612
vt 0.158156 0.028269
vt 0.116663 0.050447
vt 0.080294 0.080294
vt 0.050447 0.116663
vt 0.028269 0.158156
vt 0.014612 0.203178
vt 0.010000 0.250000
vt 0.014612 0.296822
vt 0.028269 0.341844
vt 0.050447 0.383337
vt 0.080294 0.419706
vt 0.116663 0.449553
vt 0.158156 0.471731
vt 0.203178 0.485388
vt 0.250000 0.490000
vt 0.031250 0.500000
vt 0.031250 1.000000
vt 0.000000 0.500000
vt 0.000000 1.000000
vt 0.750000 0.490000
vt 0.703178 0.485388
vt 0.658156 0.471731
vt 0.616663 0.449553
vt 0.580294 0.419706
vt 0.550447 0.383337
vt 0.528269 0.341844
vt 0.514612 0.296822
vt 0.510000 0.250000
vt 0.514612 0.203178
vt 0.528269 0.158156
vt 0.550447 0.116663
vt 0.580294 0.080294
vt 0.616663 0.050447
vt 0.658156 0.028269
vt 0.703178 0.014612
vt 0.750000 0.010000
vt 0.796822 0.014612
vt 0.841844 0.028269
vt 0.883337 0.050447
vt 0.919706 0.080294
vt 0.949553 0.116663
vt 0.971731 0.158156
vt 0.985388 0.203178
vt 0.990000 0.250000
vt 0.985388 0.296822
vt 0.971731 0.341844
vt 0.949553 0.383337
vt 0.919706 0.419706
vt 0.883337 0.449553
vt 0.841844 0.471731
vt 0.796822 0.485388
vn 0.7497 0.0000 -0.6618
vn 0.8853 0.0000 -0.4649
vn 0.9671 0.0000 -0.2543
vn 0.9988 0.0000 -0.0481
vn 0.9897 0.0000 0.1432
vn 0.9490 0.0000 0.3152
vn 0.8838 0.0000 0.4678
vn 0.7982 0.0000 0.6024
vn 0.6939 0.0000 0.7201
vn 0.5706 0.0000 0.8213
vn 0.4269 0.0000 0.9043
vn 0.2609 0.0000 0.9654
vn 0.0722 0.0000 0.9974
vn -0.1364 0.0000 0.9907
vn -0.3553 0.0000 0.9348
vn -0.5670 0.0000 0.8237
vn -0.7497 0.0000 0.6618
vn -0.8853 0.0000 0.4649
vn -0.9671 0.0000 0.2543
vn -0.9988 0.0000 0.0481
vn -0.9897 0.0000 -0.1432
vn -0.9490 0.0000 -0.3152
vn -0.8838 0.0000 -0.4678
vn -0.7982 0.0000 -0.6024
vn -0.6939 0.0000 -0.7201
vn -0.5706 0.0000 -0.8213
vn -0.4269 0.0000 -0.9043
vn -0.2609 0.0000 -0.9654
vn -0.0722 0.0000 -0.9974
vn 0.1364 0.0000 -0.9907
vn 0.0000 -1.0000 -0.0000
vn 0.3553 0.0000 -0.9348
vn 0.5670 0.0000 -0.8237
vn 0.0000 1.0000 0.0000
usemtl None
s off
f 1/1/1 3/2/1 4/3/1 2/4/1
f 3/2/2 5/5/2 6/6/2 4/3/2
f 5/5/3 7/7/3 8/8/3 6/6/3
f 7/7/4 9/9/4 10/10/4 8/8/4
f 9/9/5 11/11/5 12/12/5 10/10/5
f 11/11/6 13/13/6 14/14/6 12/12/6
f 13/13/7 15/15/7 16/16/7 14/14/7
f 15/15/8 17/17/8 18/18/8 16/16/8
f 17/17/9 19/19/9 20/20/9 18/18/9
f 19/19/10 21/21/10 22/22/10 20/20/10
f 21/21/11 23/23/11 24/24/11 22/22/11
f 23/23/12 25/25/12 26/26/12 24/24/12
f 25/25/13 27/27/13 28/28/13 26/26/13
f 27/27/14 29/29/14 30/30/14 28/28/14
f 29/29/15 31/31/15 32/32/15 30/30/15
f 31/31/16 33/33/16 34/34/16 32/32/16
f 33/33/17 35/35/17 36/36/17 34/34/17
f 35/35/18 37/37/18 38/38/18 36/36/18
f 37/37/19 39/39/19 40/40/19 38/38/19
f 39/39/20 41/41/20 42/42/20 40/40/20
f 41/41/21 43/43/21 44/44/21 42/42/21
f 43/43/22 45/45/22 46/46/22 44/44/22
f 45/45/23 47/47/23 48/48/23 46/46/23
f 47/47/24 49/49/24 50/50/24 48/48/24
f 49/49/25 51/51/25 52/52/25 50/50/25
f 51/51/26 53/53/26 54/54/26 52/52/26
f 53/53/27 55/55/27 56/56/27 54/54/27
f 55/55/28 57/57/28 58/58/28 56/56/28
f 57/57/29 59/59/29 60/60/29 58/58/29
f 59/59/30 61/61/30 62/62/30 60/60/30
f 4/63/31 6/64/31 8/65/31 10/66/31 12/67/31 14/68/31 16/69/31 18/70/31 20/71/31 22/72/31 24/73/31 26/74/31 28/75/31 30/76/31 32/77/31 34/78/31 36/79/31 38/80/31 40/81/31 42/82/31 44/83/31 46/84/31 48/85/31 50/86/31 52/87/31 54/88/31 56/89/31 58/90/31 60/91/31 62/92/31 64/93/31 2/94/31
f 61/61/32 63/95/32 64/96/32 62/62/32
f 63/95/33 1/97/33 2/98/33 64/96/33
f 1/99/34 63/100/34 61/101/34 59/102/34 57/103/34 55/104/34 53/105/34 51/106/34 49/107/34 47/108/34 45/109/34 43/110/34 41/111/34 39/112/34 37/113/34 35/114/34 33/115/34 31/116/34 29/117/34 27/118/34 25/119/34 23/120/34 21/121/34 19/122/34 17/123/34 15/124/34 13/125/34 11/126/34 9/127/34 7/128/34 5/129/34 3/130/34
